<svg width="32" height="32" viewBox="0 0 32 32" fill="none" xmlns="http://www.w3.org/2000/svg">
<g id="mdi:airbag">
<path id="Vector" d="M18.6663 10.6665C18.6663 11.542 18.4939 12.4089 18.1589 13.2177C17.8238 14.0266 17.3328 14.7615 16.7137 15.3805C16.0947 15.9996 15.3597 16.4907 14.5509 16.8257C13.7421 17.1607 12.8752 17.3332 11.9997 17.3332C10.2316 17.3332 8.53587 16.6308 7.28563 15.3805C6.03539 14.1303 5.33301 12.4346 5.33301 10.6665C5.33301 8.89839 6.03539 7.2027 7.28563 5.95246C8.53587 4.70222 10.2316 3.99984 11.9997 3.99984C12.8752 3.99984 13.7421 4.17228 14.5509 4.50731C15.3597 4.84234 16.0947 5.3334 16.7137 5.95246C17.3328 6.57152 17.8238 7.30644 18.1589 8.11528C18.4939 8.92412 18.6663 9.79102 18.6663 10.6665ZM13.9463 20.7332L17.333 24.0398L14.6663 24.0665L9.99967 28.7732L7.99967 26.7865L13.9463 20.7332ZM22.6663 2.6665C24.1063 2.6665 25.333 3.83984 25.333 5.33317C25.333 6.77317 24.1597 7.99984 22.6663 7.99984C21.2263 7.99984 19.9997 6.8265 19.9997 5.33317C19.9997 3.89317 21.1863 2.6665 22.6663 2.6665ZM19.213 19.9998H15.453L23.053 27.6132L24.9463 25.7198L19.213 19.9998ZM20.1597 19.0532L25.8797 24.7865L26.173 25.0665C26.4797 24.5598 26.6663 23.9998 26.6663 23.3332V12.6665C26.6663 11.7824 26.3152 10.9346 25.69 10.3095C25.0649 9.68436 24.2171 9.33317 23.333 9.33317C22.449 9.33317 21.6011 9.68436 20.976 10.3095C20.3509 10.9346 19.9997 11.7824 19.9997 12.6665V18.8932L20.1597 19.0532Z" fill="black"/>
</g>
</svg>
