<svg width="30" height="10" viewBox="0 0 30 10" fill="none" xmlns="http://www.w3.org/2000/svg">
<g id="Arrow 15" clip-path="url(#clip0_2031_10374)">
<path id="Arrow 15_2" d="M27.4364 4.04309C26.9382 4.71178 26.4757 5.28494 26.0487 5.85811C24.5187 7.8005 22.5262 9.13788 19.9288 9.77473C18.043 10.2205 16.2639 10.0295 14.7339 8.97867C13.2039 7.92787 11.7451 6.7497 10.2863 5.63521C9.53909 5.06204 8.86305 4.45704 8.11585 3.91572C6.76377 2.99228 5.80308 2.99228 4.34426 3.78835C2.60078 4.74362 1.49778 6.3039 1.07081 8.46919C-0.0322066 8.30998 -0.103375 7.54576 0.07453 6.87707C0.288016 6.04916 0.608254 5.18941 1.10639 4.48888C1.67569 3.69282 2.42289 2.9286 3.24125 2.35543C5.30495 0.890681 7.2619 0.858838 9.36119 2.25991C10.6065 3.08781 11.674 4.07493 12.8481 4.96652C13.9156 5.79442 15.0186 6.62233 16.1572 7.41839C17.0111 8.02339 18.0074 8.15076 19.0748 7.99155C20.7115 7.73681 22.0636 7.06812 23.2378 5.98548C23.4869 5.76258 23.7003 5.53968 23.9138 5.28494C24.8389 4.2023 25.764 3.11965 26.7603 1.94148C24.4831 2.45096 22.3839 2.9286 20.249 3.40624C20.2134 3.40624 20.1067 3.24702 19.9999 3.11965C20.1422 2.99228 20.249 2.76939 20.3913 2.7057C22.3839 1.84595 24.3764 0.922523 26.4401 0.221988C28.0412 -0.319334 29.0019 0.126461 29.4289 1.59121C29.8203 2.86491 29.927 4.2023 29.9982 5.50784C30.0338 5.82626 29.5356 6.33574 29.1798 6.46311C28.9663 6.55864 28.3259 6.17653 28.148 5.88995C27.7922 5.38047 27.6854 4.77546 27.4364 4.04309Z" fill="#18C4B8"/>
</g>
<defs>
<clipPath id="clip0_2031_10374">
<rect width="30" height="10" fill="white"/>
</clipPath>
</defs>
</svg>
