<svg width="176" height="176" viewBox="0 0 176 176" fill="none" xmlns="http://www.w3.org/2000/svg">
<path d="M59.5547 75.1594C59.5547 68.8381 61.9769 64.0186 66.8214 60.701C71.6658 57.3834 78.6599 55.7246 87.8037 55.7246C96.2405 55.7246 102.816 57.3899 107.53 60.7206C112.244 64.0512 114.602 68.692 114.603 74.6431C114.603 80.9905 112.239 85.8425 107.511 89.1992C102.782 92.5559 96.0304 94.2359 87.2547 94.2392C78.478 94.2392 71.6669 92.5874 66.8214 89.284C61.9758 85.9805 59.5536 81.2723 59.5547 75.1594ZM102.731 74.7278C102.731 70.4437 97.7033 68.3016 87.6473 68.3016C81.1685 68.3016 76.8453 68.8446 74.6777 69.9306C72.5102 71.0165 71.4242 72.5912 71.4199 74.6545C71.4199 76.8742 72.5058 78.5786 74.6777 79.7677C76.8496 80.9568 81.0941 81.5508 87.4111 81.5498C97.6245 81.5465 102.731 79.2725 102.731 74.7278Z" fill="black"/>
<path d="M113.154 99V110.872H72.9555V120.276H60.8477V99H113.154Z" fill="black"/>
<path d="M120.285 62.9648H131.373C139.052 62.9648 144.89 65.1525 148.886 69.5278C152.882 73.9031 154.88 80.2962 154.88 88.7069C154.88 95.0815 153.894 100.227 151.922 104.144C149.95 108.061 147.195 110.896 143.655 112.647C140.116 114.397 136.207 115.272 131.927 115.272H120.285V62.9648ZM132.157 74.0921V104.105C135.762 103.792 138.309 102.519 139.797 100.285C141.284 98.0516 142.029 94.3751 142.03 89.2559C142.03 86.2261 141.769 83.6594 141.246 81.5559C140.724 79.4524 139.947 77.8332 138.915 76.6984C137.883 75.5614 136.877 74.8626 135.899 74.602C134.672 74.3068 133.418 74.136 132.157 74.0921Z" fill="black"/>
<path d="M21.1191 62.9648H33.1863C40.2114 62.9648 45.2654 64.3429 48.3484 67.0991C51.4315 69.8552 52.9746 73.3618 52.9779 77.6187C52.9779 82.2178 50.7316 85.9138 46.239 88.7069C51.331 90.7181 53.8776 94.545 53.8787 100.188C53.8787 104.706 52.2981 108.35 49.1368 111.118C45.9756 113.886 41.8099 115.271 36.6396 115.272H21.1191V62.9648ZM32.9908 72.9958V84.2795C38.2925 84.1492 40.9433 82.3079 40.9433 78.7557C40.9433 76.6392 40.3102 75.1634 39.044 74.3283C37.7777 73.4932 35.76 73.049 32.9908 72.9958ZM32.9908 93.7615V105.084C35.9924 105.032 38.2452 104.568 39.7493 103.693C41.2533 102.818 42.0043 101.375 42.0021 99.3651C42.0021 95.6304 39.3247 93.7626 33.9698 93.7615H32.9908Z" fill="black"/>
</svg>
