<svg width="56" height="41" viewBox="0 0 56 41" fill="none" xmlns="http://www.w3.org/2000/svg">
<g clip-path="url(#clip0_1261_10829)">
<path d="M35.9506 40.5489L15.9012 28.5192V12.4797L35.9506 24.5094V40.5489Z" fill="#89664C"/>
<path d="M35.9506 24.5094V40.5489L56 28.5192V12.4797L35.9506 24.5094Z" fill="#FED0AC"/>
<path d="M15.9012 12.4798L35.9506 24.5095L56 12.4798L35.9506 0.450195L15.9012 12.4798Z" fill="#D3976E"/>
<path d="M47.7923 17.3668L27.8056 5.33716L24.0463 7.59271L44.0957 19.6223L47.7923 17.3668Z" fill="#89664C"/>
<path d="M40.5244 4.71065L36.0759 1.95386L32.3793 4.20941L36.8278 6.90355L40.5244 4.71065Z" fill="#D0D0D0"/>
<path d="M47.7296 17.4294L44.221 19.5597V25.3239L47.7296 23.1936V17.4294Z" fill="#D3976E"/>
<path d="M55.0602 14.2969L51.4889 16.4271V22.1913L55.0602 20.0611V14.2969ZM41.9654 27.7049L37.1411 30.587V38.4814L41.9654 35.5367V27.7049Z" fill="white"/>
<path d="M44.221 35.5993L47.7296 33.469V27.7048L44.221 29.8351V35.5993Z" fill="#D3976E"/>
</g>
<g filter="url(#filter0_i_1261_10829)">
<path d="M2.61401 25.1396C2.6141 25.0813 2.62891 25.024 2.65708 24.973C2.68524 24.922 2.72584 24.8789 2.7751 24.8478L10.7693 19.7954C10.8245 19.7605 10.8885 19.7419 10.9539 19.7419C11.0192 19.7419 11.0832 19.7605 11.1385 19.7954L19.1319 24.8492C19.1812 24.8803 19.2218 24.9234 19.25 24.9744C19.2781 25.0254 19.2929 25.0827 19.293 25.1409V33.9613C19.293 34.0202 19.2779 34.0781 19.2493 34.1295C19.2206 34.1809 19.1792 34.2241 19.1292 34.2551L11.135 39.1845C11.0805 39.2181 11.0176 39.236 10.9535 39.236C10.8894 39.236 10.8266 39.2181 10.772 39.1845L2.77925 34.2544C2.72905 34.2235 2.68758 34.1803 2.65878 34.1289C2.62998 34.0775 2.61481 34.0195 2.61471 33.9606L2.61401 25.1396Z" fill="url(#paint0_linear_1261_10829)"/>
<path d="M2.61401 25.1396C2.6141 25.0813 2.62891 25.024 2.65708 24.973C2.68524 24.922 2.72584 24.8789 2.7751 24.8478L10.7693 19.7954C10.8245 19.7605 10.8885 19.7419 10.9539 19.7419C11.0192 19.7419 11.0832 19.7605 11.1385 19.7954L19.1319 24.8492C19.1812 24.8803 19.2218 24.9234 19.25 24.9744C19.2781 25.0254 19.2929 25.0827 19.293 25.1409V33.9613C19.293 34.0202 19.2779 34.0781 19.2493 34.1295C19.2206 34.1809 19.1792 34.2241 19.1292 34.2551L11.135 39.1845C11.0805 39.2181 11.0176 39.236 10.9535 39.236C10.8894 39.236 10.8266 39.2181 10.772 39.1845L2.77925 34.2544C2.72905 34.2235 2.68758 34.1803 2.65878 34.1289C2.62998 34.0775 2.61481 34.0195 2.61471 33.9606L2.61401 25.1396Z" fill="url(#paint1_linear_1261_10829)"/>
</g>
<g filter="url(#filter1_i_1261_10829)">
<path d="M10.8889 39.2295C10.8475 39.2216 10.8079 39.2061 10.772 39.1839L2.77926 34.2545C2.72906 34.2236 2.68759 34.1804 2.65879 34.129C2.62999 34.0776 2.61482 34.0196 2.61472 33.9607V25.1438L10.7264 30.1852C10.7763 30.2162 10.8174 30.2593 10.8459 30.3106C10.8745 30.3619 10.8895 30.4196 10.8896 30.4783L10.8889 39.2295Z" fill="url(#paint2_linear_1261_10829)"/>
</g>
<path d="M19.2737 25.0254C19.2866 25.0623 19.2931 25.1011 19.293 25.1402V33.9605C19.293 34.0194 19.2779 34.0773 19.2493 34.1287C19.2206 34.1801 19.1793 34.2234 19.1292 34.2543L11.135 39.1837C11.0615 39.2289 10.9737 39.2449 10.8889 39.2287V30.4201C10.8888 30.3612 10.9038 30.3034 10.9324 30.252C10.9609 30.2006 11.0021 30.1573 11.052 30.1262L19.2101 25.0565C19.2302 25.044 19.2515 25.0336 19.2737 25.0254Z" fill="url(#paint3_linear_1261_10829)"/>
<path d="M19.2737 25.0254C19.2866 25.0623 19.2931 25.1011 19.293 25.1402V33.9605C19.293 34.0194 19.2779 34.0773 19.2493 34.1287C19.2206 34.1801 19.1793 34.2234 19.1292 34.2543L11.135 39.1837C11.0615 39.2289 10.9737 39.2449 10.8889 39.2287V30.4201C10.8888 30.3612 10.9038 30.3034 10.9324 30.252C10.9609 30.2006 11.0021 30.1573 11.052 30.1262L19.2101 25.0565C19.2302 25.044 19.2515 25.0336 19.2737 25.0254Z" fill="url(#paint4_linear_1261_10829)"/>
<g filter="url(#filter2_i_1261_10829)">
<path d="M7.45352 34.2137C7.45345 34.1766 7.4633 34.1402 7.48207 34.1083C7.50083 34.0763 7.52781 34.05 7.5602 34.032C7.5926 34.014 7.62922 34.005 7.66627 34.0059C7.70332 34.0069 7.73943 34.0177 7.77086 34.0374L9.93204 35.3807C9.98199 35.4117 10.0232 35.455 10.0517 35.5064C10.0803 35.5579 10.0952 35.6157 10.0952 35.6745V37.237C10.0953 37.274 10.0854 37.3105 10.0667 37.3424C10.0479 37.3744 10.0209 37.4007 9.98852 37.4187C9.95613 37.4367 9.9195 37.4457 9.88245 37.4447C9.84541 37.4438 9.80929 37.4329 9.77787 37.4133L7.61668 36.07C7.56674 36.0389 7.52554 35.9956 7.49699 35.9442C7.46844 35.8928 7.45348 35.835 7.45352 35.7762V34.2137Z" fill="url(#paint5_linear_1261_10829)"/>
</g>
<g filter="url(#filter3_i_1261_10829)">
<path d="M5.70371 27.3194V29.2165L7.72385 30.4264V28.6614C7.72385 28.4249 7.84277 28.2065 8.04188 28.0792C10.8004 26.3149 15.7699 23.0946 15.8902 22.9784C16.0008 22.8975 16.1481 22.9369 16.193 22.9998C16.193 22.8706 16.1239 22.7945 16.09 22.7731L14.1957 21.6171C14.1403 21.5833 14.0764 21.5657 14.0115 21.5664C13.9466 21.5672 13.8832 21.5862 13.8285 21.6213L6.08326 26.6219C5.96671 26.6971 5.8709 26.8004 5.80459 26.9223C5.73828 27.0442 5.7036 27.1807 5.70371 27.3194Z" fill="#966957"/>
<path d="M5.70371 27.3194V29.2165L7.72385 30.4264V28.6614C7.72385 28.4249 7.84277 28.2065 8.04188 28.0792C10.8004 26.3149 15.7699 23.0946 15.8902 22.9784C16.0008 22.8975 16.1481 22.9369 16.193 22.9998C16.193 22.8706 16.1239 22.7945 16.09 22.7731L14.1957 21.6171C14.1403 21.5833 14.0764 21.5657 14.0115 21.5664C13.9466 21.5672 13.8832 21.5862 13.8285 21.6213L6.08326 26.6219C5.96671 26.6971 5.8709 26.8004 5.80459 26.9223C5.73828 27.0442 5.7036 27.1807 5.70371 27.3194Z" fill="url(#paint6_linear_1261_10829)"/>
<path d="M5.70371 27.3194V29.2165L7.72385 30.4264V28.6614C7.72385 28.4249 7.84277 28.2065 8.04188 28.0792C10.8004 26.3149 15.7699 23.0946 15.8902 22.9784C16.0008 22.8975 16.1481 22.9369 16.193 22.9998C16.193 22.8706 16.1239 22.7945 16.09 22.7731L14.1957 21.6171C14.1403 21.5833 14.0764 21.5657 14.0115 21.5664C13.9466 21.5672 13.8832 21.5862 13.8285 21.6213L6.08326 26.6219C5.96671 26.6971 5.8709 26.8004 5.80459 26.9223C5.73828 27.0442 5.7036 27.1807 5.70371 27.3194Z" fill="url(#paint7_linear_1261_10829)"/>
</g>
<g filter="url(#filter4_f_1261_10829)">
<path d="M16.0526 22.8485C15.9987 22.8097 15.9143 22.8326 15.8798 22.8485L7.89667 28.0558C7.85009 28.09 7.81064 28.133 7.78052 28.1823" stroke="#A47E73" stroke-width="0.05"/>
</g>
<g filter="url(#filter5_f_1261_10829)">
<path d="M11.0617 30.0917L19.0987 25.0793" stroke="#F4CAA3" stroke-width="0.2" stroke-linecap="round"/>
</g>
<defs>
<filter id="filter0_i_1261_10829" x="2.61401" y="19.7419" width="16.679" height="19.5941" filterUnits="userSpaceOnUse" color-interpolation-filters="sRGB">
<feFlood flood-opacity="0" result="BackgroundImageFix"/>
<feBlend mode="normal" in="SourceGraphic" in2="BackgroundImageFix" result="shape"/>
<feColorMatrix in="SourceAlpha" type="matrix" values="0 0 0 0 0 0 0 0 0 0 0 0 0 0 0 0 0 0 127 0" result="hardAlpha"/>
<feOffset dy="0.1"/>
<feGaussianBlur stdDeviation="0.15"/>
<feComposite in2="hardAlpha" operator="arithmetic" k2="-1" k3="1"/>
<feColorMatrix type="matrix" values="0 0 0 0 0.843137 0 0 0 0 0.694118 0 0 0 0 0.52549 0 0 0 1 0"/>
<feBlend mode="normal" in2="shape" result="effect1_innerShadow_1261_10829"/>
</filter>
<filter id="filter1_i_1261_10829" x="2.61472" y="25.1438" width="9.27487" height="15.0857" filterUnits="userSpaceOnUse" color-interpolation-filters="sRGB">
<feFlood flood-opacity="0" result="BackgroundImageFix"/>
<feBlend mode="normal" in="SourceGraphic" in2="BackgroundImageFix" result="shape"/>
<feColorMatrix in="SourceAlpha" type="matrix" values="0 0 0 0 0 0 0 0 0 0 0 0 0 0 0 0 0 0 127 0" result="hardAlpha"/>
<feOffset dx="1" dy="1"/>
<feGaussianBlur stdDeviation="1.5"/>
<feComposite in2="hardAlpha" operator="arithmetic" k2="-1" k3="1"/>
<feColorMatrix type="matrix" values="0 0 0 0 0.831373 0 0 0 0 0.670588 0 0 0 0 0.545098 0 0 0 1 0"/>
<feBlend mode="normal" in2="shape" result="effect1_innerShadow_1261_10829"/>
</filter>
<filter id="filter2_i_1261_10829" x="7.35352" y="34.0059" width="2.74169" height="3.43896" filterUnits="userSpaceOnUse" color-interpolation-filters="sRGB">
<feFlood flood-opacity="0" result="BackgroundImageFix"/>
<feBlend mode="normal" in="SourceGraphic" in2="BackgroundImageFix" result="shape"/>
<feColorMatrix in="SourceAlpha" type="matrix" values="0 0 0 0 0 0 0 0 0 0 0 0 0 0 0 0 0 0 127 0" result="hardAlpha"/>
<feOffset dx="-0.15"/>
<feGaussianBlur stdDeviation="0.05"/>
<feComposite in2="hardAlpha" operator="arithmetic" k2="-1" k3="1"/>
<feColorMatrix type="matrix" values="0 0 0 0 0.760103 0 0 0 0 0.683293 0 0 0 0 0.795016 0 0 0 1 0"/>
<feBlend mode="normal" in2="shape" result="effect1_innerShadow_1261_10829"/>
</filter>
<filter id="filter3_i_1261_10829" x="5.6037" y="21.5664" width="10.5893" height="8.86011" filterUnits="userSpaceOnUse" color-interpolation-filters="sRGB">
<feFlood flood-opacity="0" result="BackgroundImageFix"/>
<feBlend mode="normal" in="SourceGraphic" in2="BackgroundImageFix" result="shape"/>
<feColorMatrix in="SourceAlpha" type="matrix" values="0 0 0 0 0 0 0 0 0 0 0 0 0 0 0 0 0 0 127 0" result="hardAlpha"/>
<feOffset dx="-0.1"/>
<feGaussianBlur stdDeviation="0.05"/>
<feComposite in2="hardAlpha" operator="arithmetic" k2="-1" k3="1"/>
<feColorMatrix type="matrix" values="0 0 0 0 0.47451 0 0 0 0 0.266667 0 0 0 0 0.301961 0 0 0 1 0"/>
<feBlend mode="normal" in2="shape" result="effect1_innerShadow_1261_10829"/>
</filter>
<filter id="filter4_f_1261_10829" x="7.65919" y="22.7022" width="8.50801" height="5.59307" filterUnits="userSpaceOnUse" color-interpolation-filters="sRGB">
<feFlood flood-opacity="0" result="BackgroundImageFix"/>
<feBlend mode="normal" in="SourceGraphic" in2="BackgroundImageFix" result="shape"/>
<feGaussianBlur stdDeviation="0.05" result="effect1_foregroundBlur_1261_10829"/>
</filter>
<filter id="filter5_f_1261_10829" x="10.7117" y="24.7292" width="8.73706" height="5.7124" filterUnits="userSpaceOnUse" color-interpolation-filters="sRGB">
<feFlood flood-opacity="0" result="BackgroundImageFix"/>
<feBlend mode="normal" in="SourceGraphic" in2="BackgroundImageFix" result="shape"/>
<feGaussianBlur stdDeviation="0.125" result="effect1_foregroundBlur_1261_10829"/>
</filter>
<linearGradient id="paint0_linear_1261_10829" x1="10.9539" y1="19.7414" x2="10.9539" y2="39.235" gradientUnits="userSpaceOnUse">
<stop stop-color="#DEB586"/>
<stop offset="1" stop-color="#D7AA82"/>
</linearGradient>
<linearGradient id="paint1_linear_1261_10829" x1="7.34567" y1="28.158" x2="7.65885" y2="27.6609" gradientUnits="userSpaceOnUse">
<stop offset="0.066" stop-color="#C99D78"/>
<stop offset="1" stop-color="#DCB185" stop-opacity="0"/>
</linearGradient>
<linearGradient id="paint2_linear_1261_10829" x1="3.71674" y1="28.9138" x2="9.58637" y2="38.7331" gradientUnits="userSpaceOnUse">
<stop stop-color="#B98875"/>
<stop offset="1" stop-color="#AA684F"/>
</linearGradient>
<linearGradient id="paint3_linear_1261_10829" x1="11.4724" y1="30.0052" x2="17.0033" y2="35.7525" gradientUnits="userSpaceOnUse">
<stop stop-color="#D7A585"/>
<stop offset="1" stop-color="#BD7943"/>
</linearGradient>
<linearGradient id="paint4_linear_1261_10829" x1="10.6642" y1="35.8576" x2="11.4648" y2="35.8133" gradientUnits="userSpaceOnUse">
<stop stop-color="#B46C4B"/>
<stop offset="1" stop-color="#BD7E61" stop-opacity="0"/>
</linearGradient>
<linearGradient id="paint5_linear_1261_10829" x1="7.84068" y1="34.1508" x2="9.65204" y2="37.6414" gradientUnits="userSpaceOnUse">
<stop stop-color="#CAB6CD"/>
<stop offset="1" stop-color="#D1BED7"/>
</linearGradient>
<linearGradient id="paint6_linear_1261_10829" x1="6.09294" y1="29.3894" x2="7.47566" y2="27.3374" gradientUnits="userSpaceOnUse">
<stop offset="0.649" stop-color="#8D6D6C"/>
<stop offset="0.726" stop-color="#83554C"/>
<stop offset="0.825" stop-color="#83554C"/>
<stop offset="1" stop-color="#976A58" stop-opacity="0"/>
</linearGradient>
<linearGradient id="paint7_linear_1261_10829" x1="15.6634" y1="22.4219" x2="14.9721" y2="23.1996" gradientUnits="userSpaceOnUse">
<stop stop-color="#9C6F5D"/>
<stop offset="1" stop-color="#9C6F5D" stop-opacity="0"/>
</linearGradient>
<clipPath id="clip0_1261_10829">
<rect width="40.0988" height="40.0988" fill="white" transform="translate(15.9012 0.450195)"/>
</clipPath>
</defs>
</svg>
