<svg width="25" height="24" viewBox="0 0 25 24" fill="none" xmlns="http://www.w3.org/2000/svg">
<g id="mdi:car-sports">
<path id="Vector" d="M12.5 8.5H7.5L4.5 11H3.5C2.39 11 1.5 11.89 1.5 13V16H3.67C4.1 17.2 5.23 18 6.5 18C7.77 18 8.9 17.2 9.32 16H15.67C16.1 17.2 17.23 18 18.5 18C19.77 18 20.9 17.2 21.32 16H23.5V15C23.5 13.89 22.47 13.53 21.5 13L12.5 8.5ZM5.75 12L8 10H12L16 12H5.75ZM6.5 13.5C6.89782 13.5 7.27936 13.658 7.56066 13.9393C7.84196 14.2206 8 14.6022 8 15C8 15.3978 7.84196 15.7794 7.56066 16.0607C7.27936 16.342 6.89782 16.5 6.5 16.5C6.10218 16.5 5.72064 16.342 5.43934 16.0607C5.15804 15.7794 5 15.3978 5 15C5 14.6022 5.15804 14.2206 5.43934 13.9393C5.72064 13.658 6.10218 13.5 6.5 13.5ZM18.5 13.5C18.8978 13.5 19.2794 13.658 19.5607 13.9393C19.842 14.2206 20 14.6022 20 15C20 15.3978 19.842 15.7794 19.5607 16.0607C19.2794 16.342 18.8978 16.5 18.5 16.5C18.1022 16.5 17.7206 16.342 17.4393 16.0607C17.158 15.7794 17 15.3978 17 15C17 14.6022 17.158 14.2206 17.4393 13.9393C17.7206 13.658 18.1022 13.5 18.5 13.5Z" fill="white"/>
</g>
</svg>
