<svg xmlns="http://www.w3.org/2000/svg" xmlns:xlink="http://www.w3.org/1999/xlink" version="1.1" width="256" height="256" viewBox="0 0 256 256" xml:space="preserve">
<g style="stroke: none; stroke-width: 0; stroke-dasharray: none; stroke-linecap: butt; stroke-linejoin: miter; stroke-miterlimit: 10; fill: none; fill-rule: nonzero; opacity: 1;" transform="translate(1.4065934065934016 1.4065934065934016) scale(2.81 2.81)">
	<path d="M 85.855 74.526 H 4.145 C 1.856 74.526 0 72.671 0 70.382 V 19.618 c 0 -2.289 1.856 -4.145 4.145 -4.145 h 81.711 c 2.289 0 4.145 1.856 4.145 4.145 v 50.764 C 90 72.671 88.144 74.526 85.855 74.526 z" style="stroke: none; stroke-width: 1; stroke-dasharray: none; stroke-linecap: butt; stroke-linejoin: miter; stroke-miterlimit: 10; fill: rgb(93,100,127); fill-rule: nonzero; opacity: 1;" transform=" matrix(1 0 0 1 0 0) " stroke-linecap="round"/>
	<rect x="0" y="27.34" rx="0" ry="0" width="90" height="12.81" style="stroke: none; stroke-width: 1; stroke-dasharray: none; stroke-linecap: butt; stroke-linejoin: miter; stroke-miterlimit: 10; fill: rgb(184,186,192); fill-rule: nonzero; opacity: 1;" transform=" matrix(1 0 0 1 0 0) "/>
	<path d="M 80.116 48.843 H 57.085 c -0.553 0 -1 0.447 -1 1 v 12.814 c 0 0.553 0.447 1 1 1 h 23.031 c 0.553 0 1 -0.447 1 -1 V 49.843 C 81.116 49.29 80.669 48.843 80.116 48.843 z" style="stroke: none; stroke-width: 1; stroke-dasharray: none; stroke-linecap: butt; stroke-linejoin: miter; stroke-miterlimit: 10; fill: rgb(255,209,0); fill-rule: nonzero; opacity: 1;" transform=" matrix(1 0 0 1 0 0) " stroke-linecap="round"/>
	<path d="M 32.916 50.843 H 9.884 c -0.552 0 -1 -0.447 -1 -1 s 0.448 -1 1 -1 h 23.032 c 0.552 0 1 0.447 1 1 S 33.468 50.843 32.916 50.843 z" style="stroke: none; stroke-width: 1; stroke-dasharray: none; stroke-linecap: butt; stroke-linejoin: miter; stroke-miterlimit: 10; fill: rgb(184,186,192); fill-rule: nonzero; opacity: 1;" transform=" matrix(1 0 0 1 0 0) " stroke-linecap="round"/>
	<path d="M 18.597 58.544 H 9.884 c -0.552 0 -1 -0.447 -1 -1 s 0.448 -1 1 -1 h 8.713 c 0.552 0 1 0.447 1 1 S 19.149 58.544 18.597 58.544 z" style="stroke: none; stroke-width: 1; stroke-dasharray: none; stroke-linecap: butt; stroke-linejoin: miter; stroke-miterlimit: 10; fill: rgb(184,186,192); fill-rule: nonzero; opacity: 1;" transform=" matrix(1 0 0 1 0 0) " stroke-linecap="round"/>
</g>
</svg>