<svg width="31" height="27" viewBox="0 0 31 27" fill="none" xmlns="http://www.w3.org/2000/svg">
<g id="emojione-v1:confetti-ball" clip-path="url(#clip0_2231_16874)">
<path id="Vector" d="M23.0944 5.62414C22.0348 3.83226 21.1637 0.555466 19.1433 -0.0831904C16.6867 -0.859823 14.7436 1.66221 12.4392 2.59958C11.8887 2.82441 13.1443 3.52002 13.5392 3.35915C14.73 2.87587 17.9703 -0.174477 18.97 0.727647C20.2413 1.87577 20.8599 4.03423 21.7593 5.55658C21.9756 5.92356 23.396 6.13417 23.0943 5.6245" fill="#30434A"/>
<path id="Vector_2" d="M8.43596 17.3604C8.56557 17.8088 9.02395 17.9844 9.21895 18.3826C9.60146 19.1625 9.53881 19.9401 9.03162 20.7111C9.40633 21.0187 9.78629 21.2829 10.2272 21.2347C11.298 19.4428 10.7502 17.4617 9.39003 16.5436C8.87417 16.198 8.1781 16.4561 8.43632 17.3593" fill="#29ABE2"/>
<path id="Vector_3" d="M5.51127 17.1232C5.19559 17.3062 5.11298 17.7439 4.84075 17.9798C4.30892 18.4414 3.73455 18.5038 3.11765 18.1669C2.93162 18.5477 2.77535 18.9282 2.85407 19.3178C4.27002 20.0053 5.66248 19.2119 6.20217 17.8523C6.40428 17.3391 6.1455 16.7534 5.51127 17.1232Z" fill="#04A69C"/>
<path id="Vector_4" d="M4.66408 12.6624C4.77627 12.316 4.5482 11.9347 4.59382 11.5767C4.68328 10.8784 5.07021 10.4496 5.7546 10.2903C5.63923 9.88037 5.50239 9.49286 5.18407 9.25596C3.67003 9.68684 3.1581 11.2072 3.66274 12.5788C3.85384 13.0968 4.43587 13.3608 4.66408 12.6624Z" fill="#D13852"/>
<path id="Vector_5" d="M16.1271 2.29599C15.3539 0.242636 12.0678 -1.87971 9.8206 -1.90553C7.56261 -1.93224 5.55263 1.34255 5.3759 3.68302C5.25374 5.31052 7.63175 5.92221 8.8028 6.0857C11.7999 6.50617 16.6343 3.6435 16.1271 2.29599Z" fill="#F4C778"/>
<path id="Vector_6" d="M10.3797 1.57749C7.77115 2.03565 5.81149 3.29534 6.00478 4.39198C6.19654 5.48731 8.4691 6.00375 11.077 5.545C13.6867 5.08684 15.7377 3.49659 15.5449 2.4009C15.351 1.30485 12.989 1.11803 10.3797 1.57749Z" fill="#835423"/>
<path id="Vector_7" d="M10.1859 8.22326C9.70665 8.37842 9.44009 8.96233 8.99754 9.20403C8.12981 9.67513 7.35119 9.57556 6.66169 8.9053C6.27909 9.3773 5.93747 9.85926 5.90047 10.4285C7.51504 11.8485 9.636 11.1958 10.833 9.46818C11.2844 8.81479 11.1548 7.9117 10.1859 8.22326ZM21.5451 12.8404C21.7679 13.3771 22.4406 13.6026 22.7547 14.0828C23.3676 15.0226 23.3445 15.9451 22.68 16.8457C23.2421 17.2241 23.8086 17.5512 24.4423 17.5104C25.8302 15.4207 24.8785 13.0476 22.8476 11.9075C22.0787 11.4755 21.0977 11.7584 21.5455 12.8417" fill="#04A69C"/>
<path id="Vector_8" d="M20.6228 13.6234C19.3959 13.454 18.3859 14.1556 17.9034 15.2689C17.631 15.8967 18.6809 16.7957 17.9267 16.9161C17.4815 16.987 17.0534 17.255 16.758 17.5883C16.3933 17.9994 16.2083 18.3152 16.4711 18.8485C16.5091 18.9244 17.173 19.7247 17.1324 19.7473C16.846 19.91 16.5725 20.0946 16.3146 20.2996C14.9942 21.3598 14.7889 22.7741 16.004 23.9396C16.2906 24.2116 17.3931 23.2258 17.1729 23.0151C16.6364 22.5005 15.5764 21.2155 16.8029 20.5443C17.0906 20.3878 17.3596 20.2174 17.5795 19.9702C18.1769 19.3007 18.2754 18.5681 17.6397 17.9236C17.3559 17.6374 17.6966 17.8411 18.0142 17.6758C18.3097 17.5219 18.6117 17.293 18.8302 17.0405C19.0343 16.8045 19.3592 16.3137 19.3339 15.9685C19.3024 15.5577 18.7038 14.4953 19.5752 14.6151C19.9933 14.6737 20.8682 13.6576 20.6228 13.6234ZM17.6244 10.2173C15.8799 8.79036 15.0399 10.1117 14.2797 11.6995C14.4457 11.3522 12.4435 11.2172 12.1222 11.3318C11.2961 11.6285 10.6599 13.0556 9.91844 12.3493C9.28693 11.7462 8.55429 11.8893 7.82951 12.2913C7.51633 12.4678 7.25272 12.7204 7.06306 13.0258C6.82602 13.4074 6.94861 14.4476 6.44318 13.8417C4.87658 11.9635 2.72028 15.2959 2.311 16.3383C2.23889 16.5225 3.4728 16.1548 3.63037 15.7541C3.93951 14.9657 4.47671 13.7683 5.3644 14.8332C5.60076 15.1155 5.66103 15.0909 6.01616 15.1169C6.4858 15.1521 7.1146 14.6981 7.44422 14.4227C7.88407 14.0549 8.14699 12.6939 8.61534 13.0709C9.23701 13.5725 9.74667 13.8605 10.5615 13.5002C11.0577 13.2811 11.4338 12.9902 11.6877 12.5169C12.191 11.5849 12.8997 12.8175 13.6208 12.6792C14.2226 12.5633 14.6761 12.2183 15.1137 11.8177C15.3793 11.5745 15.5354 11.2632 15.6885 10.9421C15.9684 10.3596 14.9933 9.85389 16.3206 10.9387C16.6706 11.2256 17.7836 10.3467 17.6237 10.2171" fill="#EACB49"/>
<path id="Vector_9" d="M11.2235 7.32601C12.4543 7.18663 13.4468 7.91166 13.9019 9.03746C14.1586 9.67246 13.0862 10.5449 13.8375 10.6838C14.2807 10.7655 14.7019 11.0445 14.9893 11.3841C15.3438 11.8036 15.5209 12.124 15.2446 12.6504C15.2053 12.7262 14.5208 13.5098 14.5617 13.534C14.8446 13.7021 15.1132 13.8931 15.3648 14.1052C16.6603 15.1974 16.8299 16.6167 15.5859 17.7528C15.2926 18.0191 14.215 17.0049 14.4399 16.8001C14.9894 16.2985 16.0809 15.04 14.8707 14.3401C14.5874 14.1761 14.3223 13.9984 14.1091 13.747C13.528 13.0619 13.4484 12.3263 14.099 11.6987C14.39 11.4193 14.0437 11.6153 13.7304 11.4419C13.4388 11.2814 13.1428 11.045 12.9308 10.7868C12.733 10.5461 12.4195 10.0466 12.4542 9.70199C12.4953 9.29215 13.1201 8.245 12.2451 8.34413C11.8266 8.39161 10.9773 7.35482 11.2233 7.32673M22.5585 20.8416C22.3121 20.26 21.7218 20.2269 21.2022 20.3886C21.2245 20.33 21.2169 20.2791 21.1443 20.2513C20.8805 20.1502 20.4629 20.4071 20.2609 20.5468C19.6243 20.9879 19.1627 21.7237 19.6555 22.4564C20.1874 23.2455 21.3603 22.8151 21.981 22.4138C22.5317 22.0579 22.825 21.47 22.5585 20.8416ZM20.7655 21.2066C20.7646 21.1845 20.7727 21.1643 20.7739 21.1433C20.8061 21.1534 20.8745 21.1596 20.9193 21.1804C21.043 21.2359 21.1274 21.3466 21.1993 21.4578C21.2986 21.6107 21.3514 21.8121 21.3427 22.0044C21.1916 21.9523 21.0584 21.8584 20.9586 21.7336C20.8423 21.5876 20.7769 21.3907 20.7655 21.2066Z" fill="#D13852"/>
<path id="Vector_10" d="M12.9405 15.0173C12.7244 14.3885 12.1115 14.4464 11.577 14.6636C10.8038 14.7327 9.85188 15.302 10.0224 16.1275C10.2084 17.0335 11.23 17.0971 11.9201 16.7787C12.6301 16.4517 13.2235 15.8359 12.9411 15.0155" fill="#EACB49"/>
<path id="Vector_11" d="M19.4466 17.391C19.1982 16.2598 16.6453 9.08494 20.3133 10.0217C20.8831 10.1679 21.7831 9.88755 20.7894 9.63342C18.505 9.0492 16.9119 9.58942 16.8747 12.1928C16.8555 13.5198 17.2685 14.8171 17.6973 16.0528C18.1859 17.4715 18.1425 20.8499 15.2371 19.4126C13.8591 18.7308 13.7008 15.6269 15.3515 16.8382C15.6369 17.0473 17.0047 17.0864 16.6616 16.8347C15.6421 16.0866 13.7797 15.2759 12.7794 16.4584C11.3041 18.2019 14.512 19.8434 15.6991 20.1379C17.5222 20.59 19.957 19.7036 19.4471 17.3896" fill="#29ABE2"/>
<path id="Vector_12" d="M19.8862 3.57331C21.7508 2.41636 25.6492 2.7356 27.4467 4.08472C29.2531 5.43922 28.8512 9.26049 27.5659 11.2243C26.6708 12.5891 24.4125 11.6252 23.3843 11.0413C20.7517 9.54818 18.6629 4.33272 19.8862 3.57331Z" fill="#F4C778"/>
<path id="Vector_13" d="M24.8822 6.50584C26.6707 8.45828 27.4577 10.6514 26.6363 11.4032C25.8172 12.155 23.6995 11.1795 21.9114 9.22679C20.1213 7.27339 19.4639 4.76273 20.2844 4.01141C21.106 3.26046 23.0917 4.55114 24.8822 6.50584Z" fill="#835423"/>
</g>
<defs>
<clipPath id="clip0_2231_16874">
<rect width="24" height="24" fill="white" transform="translate(7.72241 -4) rotate(18.7697)"/>
</clipPath>
</defs>
</svg>
