<svg width="50" height="50" viewBox="0 0 50 50" fill="none" xmlns="http://www.w3.org/2000/svg">
<path d="M46.4069 19.4919C45.5822 18.63 44.7291 17.7419 44.4075 16.9609C44.11 16.2456 44.0925 15.06 44.075 13.9116C44.0422 11.7766 44.0072 9.35719 42.325 7.675C40.6428 5.99281 38.2234 5.95781 36.0884 5.925C34.94 5.9075 33.7544 5.89 33.0391 5.5925C32.2603 5.27094 31.37 4.41781 30.5081 3.59312C28.9987 2.14281 27.2838 0.5 25 0.5C22.7162 0.5 21.0034 2.14281 19.4919 3.59312C18.63 4.41781 17.7419 5.27094 16.9609 5.5925C16.25 5.89 15.06 5.9075 13.9116 5.925C11.7766 5.95781 9.35719 5.99281 7.675 7.675C5.99281 9.35719 5.96875 11.7766 5.925 13.9116C5.9075 15.06 5.89 16.2456 5.5925 16.9609C5.27094 17.7397 4.41781 18.63 3.59312 19.4919C2.14281 21.0012 0.5 22.7162 0.5 25C0.5 27.2838 2.14281 28.9966 3.59312 30.5081C4.41781 31.37 5.27094 32.2581 5.5925 33.0391C5.89 33.7544 5.9075 34.94 5.925 36.0884C5.95781 38.2234 5.99281 40.6428 7.675 42.325C9.35719 44.0072 11.7766 44.0422 13.9116 44.075C15.06 44.0925 16.2456 44.11 16.9609 44.4075C17.7397 44.7291 18.63 45.5822 19.4919 46.4069C21.0012 47.8572 22.7162 49.5 25 49.5C27.2838 49.5 28.9966 47.8572 30.5081 46.4069C31.37 45.5822 32.2581 44.7291 33.0391 44.4075C33.7544 44.11 34.94 44.0925 36.0884 44.075C38.2234 44.0422 40.6428 44.0072 42.325 42.325C44.0072 40.6428 44.0422 38.2234 44.075 36.0884C44.0925 34.94 44.11 33.7544 44.4075 33.0391C44.7291 32.2603 45.5822 31.37 46.4069 30.5081C47.8572 28.9987 49.5 27.2838 49.5 25C49.5 22.7162 47.8572 21.0034 46.4069 19.4919ZM34.9881 20.9881L22.7381 33.2381C22.5756 33.4008 22.3826 33.5299 22.1701 33.618C21.9577 33.706 21.73 33.7514 21.5 33.7514C21.27 33.7514 21.0423 33.706 20.8299 33.618C20.6174 33.5299 20.4244 33.4008 20.2619 33.2381L15.0119 27.9881C14.8493 27.8255 14.7203 27.6325 14.6323 27.4201C14.5443 27.2076 14.499 26.9799 14.499 26.75C14.499 26.5201 14.5443 26.2924 14.6323 26.0799C14.7203 25.8675 14.8493 25.6745 15.0119 25.5119C15.3402 25.1835 15.7856 24.999 16.25 24.999C16.4799 24.999 16.7076 25.0443 16.9201 25.1323C17.1325 25.2203 17.3255 25.3493 17.4881 25.5119L21.5 29.5259L32.5119 18.5119C32.6745 18.3493 32.8675 18.2203 33.0799 18.1323C33.2924 18.0443 33.5201 17.999 33.75 17.999C33.9799 17.999 34.2076 18.0443 34.4201 18.1323C34.6325 18.2203 34.8255 18.3493 34.9881 18.5119C35.1507 18.6745 35.2797 18.8675 35.3677 19.0799C35.4557 19.2924 35.501 19.5201 35.501 19.75C35.501 19.9799 35.4557 20.2076 35.3677 20.4201C35.2797 20.6325 35.1507 20.8255 34.9881 20.9881Z" fill="#18C4B8"/>
</svg>
