<svg width="40" height="184" viewBox="0 0 40 184" fill="none" xmlns="http://www.w3.org/2000/svg">
<path d="M0 8C0 3.58172 3.58172 0 8 0H40V184H8C3.58172 184 0 180.418 0 176V169.611C0.129789 169.62 0.260575 169.625 0.392252 169.625C4.07415 169.625 7.05892 165.978 7.05892 161.479C7.05892 156.98 4.07415 153.333 0.392252 153.333C0.260575 153.333 0.129789 153.338 0 153.347V141.819C0.129789 141.829 0.260575 141.833 0.392252 141.833C4.07415 141.833 7.05892 138.186 7.05892 133.688C7.05892 129.189 4.07415 125.542 0.392252 125.542C0.260575 125.542 0.129789 125.546 0 125.556V114.028C0.129789 114.037 0.260575 114.042 0.392252 114.042C4.07415 114.042 7.05892 110.395 7.05892 105.896C7.05892 101.397 4.07415 97.75 0.392252 97.75C0.260575 97.75 0.129789 97.7547 0 97.7639V86.2361C0.129789 86.2453 0.260575 86.25 0.392252 86.25C4.07415 86.25 7.05892 82.603 7.05892 78.1042C7.05892 73.6053 4.07415 69.9583 0.392252 69.9583C0.260575 69.9583 0.129789 69.963 0 69.9722V58.4445C0.129789 58.4537 0.260575 58.4583 0.392252 58.4583C4.07415 58.4583 7.05892 54.8113 7.05892 50.3125C7.05892 45.8137 4.07415 42.1667 0.392252 42.1667C0.260575 42.1667 0.129789 42.1713 0 42.1805V30.6528C0.129789 30.662 0.260575 30.6667 0.392252 30.6667C4.07415 30.6667 7.05892 27.0197 7.05892 22.5208C7.05892 18.022 4.07415 14.375 0.392252 14.375C0.260575 14.375 0.129789 14.3797 0 14.3889V8Z" fill="#18C4B8"/>
</svg>
