<svg width="16" height="17" viewBox="0 0 16 17" fill="none" xmlns="http://www.w3.org/2000/svg">
<g id="radix-icons:dimensions" clip-path="url(#clip0_3850_12360)">
<path id="Vector" fill-rule="evenodd" clip-rule="evenodd" d="M3.2003 3.42162C3.20016 3.47142 3.18608 3.52019 3.15965 3.56239C3.13321 3.6046 3.09549 3.63856 3.05075 3.66043C3.00601 3.68231 2.95604 3.69121 2.9065 3.68614C2.85695 3.68107 2.80982 3.66223 2.77044 3.63175L1.07124 2.31015C1.03931 2.28521 1.0135 2.25333 0.995737 2.21692C0.977979 2.18051 0.96875 2.14053 0.96875 2.10002C0.96875 2.05951 0.977979 2.01953 0.995737 1.98312C1.0135 1.94671 1.03931 1.91483 1.07124 1.88989L2.77044 0.567221C2.80996 0.536632 2.85729 0.517767 2.90703 0.512779C2.95676 0.50779 3.00689 0.51688 3.05171 0.53901C3.09653 0.56114 3.13422 0.595419 3.16049 0.637939C3.18677 0.680459 3.20056 0.729506 3.2003 0.779488V1.56882H9.6003V0.777355C9.60029 0.727369 9.61433 0.678386 9.64081 0.635994C9.6673 0.593602 9.70516 0.559507 9.75009 0.537598C9.79502 0.51569 9.8452 0.506851 9.89491 0.512088C9.94462 0.517326 9.99186 0.53643 10.0312 0.567221L11.7294 1.88882C11.7613 1.91376 11.7871 1.94565 11.8049 1.98206C11.8226 2.01847 11.8319 2.05844 11.8319 2.09895C11.8319 2.13946 11.8226 2.17944 11.8049 2.21585C11.7871 2.25226 11.7613 2.28415 11.7294 2.30909L10.0312 3.63175C9.99179 3.6626 9.94445 3.68172 9.89465 3.68692C9.84484 3.69211 9.79458 3.68318 9.74961 3.66115C9.70464 3.63911 9.66679 3.60485 9.64039 3.5623C9.61398 3.51976 9.60009 3.47063 9.6003 3.42055V2.63335H3.2003V3.42162ZM10.1336 5.83335H2.66697C2.52552 5.83335 2.38987 5.88954 2.28985 5.98956C2.18983 6.08958 2.13364 6.22524 2.13364 6.36669V13.8334C2.13364 13.9748 2.18983 14.1105 2.28985 14.2105C2.38987 14.3105 2.52552 14.3667 2.66697 14.3667H10.1336C10.2751 14.3667 10.4107 14.3105 10.5108 14.2105C10.6108 14.1105 10.667 13.9748 10.667 13.8334V6.36669C10.667 6.22524 10.6108 6.08958 10.5108 5.98956C10.4107 5.88954 10.2751 5.83335 10.1336 5.83335ZM2.66697 4.76669C2.24262 4.76669 1.83566 4.93526 1.5356 5.23532C1.23554 5.53538 1.06697 5.94234 1.06697 6.36669V13.8334C1.06697 14.2577 1.23554 14.6647 1.5356 14.9647C1.83566 15.2648 2.24262 15.4334 2.66697 15.4334H10.1336C10.558 15.4334 10.9649 15.2648 11.265 14.9647C11.5651 14.6647 11.7336 14.2577 11.7336 13.8334V6.36669C11.7336 5.94234 11.5651 5.53538 11.265 5.23532C10.9649 4.93526 10.558 4.76669 10.1336 4.76669H2.66697ZM15.7219 6.90002H14.9336V13.3H15.7219C15.7717 13.3002 15.8205 13.3142 15.8627 13.3407C15.9049 13.3671 15.9388 13.4048 15.9607 13.4496C15.9826 13.4943 15.9915 13.5443 15.9864 13.5938C15.9814 13.6434 15.9625 13.6905 15.932 13.7299L14.6104 15.4291C14.5855 15.461 14.5536 15.4868 14.5172 15.5046C14.4808 15.5223 14.4408 15.5316 14.4003 15.5316C14.3598 15.5316 14.3198 15.5223 14.2834 15.5046C14.247 15.4868 14.2151 15.461 14.1902 15.4291L12.8675 13.7299C12.837 13.6904 12.8181 13.6432 12.8131 13.5936C12.8081 13.5439 12.8171 13.4939 12.8391 13.4491C12.8611 13.4043 12.8952 13.3666 12.9375 13.3403C12.9799 13.3139 13.0288 13.3 13.0787 13.3H13.867V6.90002H13.0787C13.0289 6.89988 12.9801 6.88579 12.9379 6.85936C12.8957 6.83293 12.8618 6.79521 12.8399 6.75047C12.818 6.70573 12.8091 6.65576 12.8142 6.60621C12.8193 6.55667 12.8381 6.50954 12.8686 6.47015L14.1902 4.77095C14.2151 4.73903 14.247 4.71321 14.2834 4.69546C14.3198 4.6777 14.3598 4.66847 14.4003 4.66847C14.4408 4.66847 14.4808 4.6777 14.5172 4.69546C14.5536 4.71321 14.5855 4.73903 14.6104 4.77095L15.9331 6.47015C15.9636 6.50961 15.9825 6.55684 15.9875 6.60648C15.9925 6.65612 15.9835 6.70617 15.9615 6.75095C15.9395 6.79572 15.9054 6.83343 15.8631 6.85979C15.8207 6.88614 15.7718 6.90008 15.7219 6.90002Z" fill="black"/>
</g>
<defs>
<clipPath id="clip0_3850_12360">
<rect width="16" height="16" fill="white" transform="translate(0 0.5)"/>
</clipPath>
</defs>
</svg>
