<svg width="24" height="24" viewBox="0 0 24 24" fill="none" xmlns="http://www.w3.org/2000/svg">
<g id="solar:euro-bold-duotone">
<path id="Vector" opacity="0.5" d="M12 22C17.523 22 22 17.523 22 12C22 6.477 17.523 2 12 2C6.477 2 2 6.477 2 12C2 17.523 6.477 22 12 22Z" fill="black"/>
<path id="Vector_2" d="M6.75 12.0002C6.75 11.7449 6.76767 11.4949 6.803 11.2502H10C10.1989 11.2502 10.3897 11.1712 10.5303 11.0305C10.671 10.8899 10.75 10.6991 10.75 10.5002C10.75 10.3013 10.671 10.1105 10.5303 9.96987C10.3897 9.82922 10.1989 9.7502 10 9.7502H7.255C7.56561 9.09473 8.00868 8.51074 8.55626 8.03506C9.10383 7.55937 9.74404 7.20231 10.4365 6.9864C11.129 6.77049 11.8586 6.70041 12.5795 6.78058C13.3004 6.86075 13.9969 7.08943 14.625 7.4522C14.7103 7.50222 14.8047 7.53487 14.9027 7.54827C15.0007 7.56167 15.1004 7.55556 15.196 7.53027C15.2916 7.50499 15.3813 7.46105 15.4599 7.40096C15.5385 7.34088 15.6044 7.26585 15.6538 7.1802C15.7033 7.09454 15.7353 6.99994 15.7481 6.90186C15.7608 6.80377 15.754 6.70414 15.7281 6.60868C15.7022 6.51323 15.6577 6.42384 15.5971 6.34567C15.5364 6.2675 15.461 6.20209 15.375 6.1532C14.5166 5.65812 13.5598 5.35803 12.5724 5.2742C11.585 5.19038 10.5913 5.32489 9.66169 5.66818C8.73212 6.01147 7.88949 6.55514 7.19359 7.2606C6.49769 7.96606 5.96558 8.81603 5.635 9.7502H5C4.80109 9.7502 4.61032 9.82922 4.46967 9.96987C4.32902 10.1105 4.25 10.3013 4.25 10.5002C4.25 10.6991 4.32902 10.8899 4.46967 11.0305C4.61032 11.1712 4.80109 11.2502 5 11.2502H5.291C5.23568 11.7487 5.23568 12.2517 5.291 12.7502H5C4.80109 12.7502 4.61032 12.8292 4.46967 12.9699C4.32902 13.1105 4.25 13.3013 4.25 13.5002C4.25 13.6991 4.32902 13.8899 4.46967 14.0305C4.61032 14.1712 4.80109 14.2502 5 14.2502H5.634C5.96462 15.1846 6.49687 16.0347 7.19296 16.7403C7.88905 17.4458 8.73192 17.9895 9.66173 18.3327C10.5915 18.6759 11.5855 18.8103 12.5731 18.7262C13.5606 18.6421 14.5176 18.3417 15.376 17.8462C15.4636 17.7982 15.5408 17.7331 15.6029 17.6548C15.6651 17.5765 15.7109 17.4866 15.7378 17.3903C15.7647 17.2941 15.7721 17.1934 15.7595 17.0942C15.7469 16.9951 15.7147 16.8995 15.6646 16.8129C15.6146 16.7264 15.5477 16.6508 15.468 16.5905C15.3883 16.5302 15.2974 16.4864 15.2005 16.4617C15.1037 16.4371 15.0029 16.432 14.904 16.4469C14.8052 16.4617 14.7103 16.4962 14.625 16.5482C13.9969 16.911 13.3004 17.1397 12.5795 17.2198C11.8586 17.3 11.129 17.2299 10.4365 17.014C9.74404 16.7981 9.10383 16.441 8.55626 15.9653C8.00868 15.4897 7.56561 14.9057 7.255 14.2502H10C10.1989 14.2502 10.3897 14.1712 10.5303 14.0305C10.671 13.8899 10.75 13.6991 10.75 13.5002C10.75 13.3013 10.671 13.1105 10.5303 12.9699C10.3897 12.8292 10.1989 12.7502 10 12.7502H6.803C6.76654 12.5019 6.74882 12.2512 6.75 12.0002Z" fill="black"/>
</g>
</svg>
