<svg width="84" height="41" viewBox="0 0 84 41" fill="none" xmlns="http://www.w3.org/2000/svg">
<g id="Group 3118">
<path id="Vector" d="M24.1377 12.2047C24.1377 8.23504 25.6588 5.20849 28.701 3.1251C31.7433 1.0417 36.1355 0 41.8776 0C47.1758 0 51.305 1.04579 54.2654 3.13737C57.2258 5.22895 58.7064 8.14332 58.7071 11.8805C58.7071 15.8665 57.2224 18.9136 54.2532 21.0215C51.2839 23.1294 47.0438 24.1844 41.5329 24.1865C36.0212 24.1865 31.744 23.1492 28.701 21.0747C25.6581 19.0002 24.137 16.0435 24.1377 12.2047ZM51.2519 11.9337C51.2519 9.24332 48.0944 7.89815 41.7794 7.89815C37.7108 7.89815 34.9959 8.23914 33.6347 8.9211C32.2735 9.60306 31.5915 10.5919 31.5888 11.8876C31.5888 13.2816 32.2708 14.3519 33.6347 15.0987C34.9986 15.8454 37.6641 16.2184 41.6311 16.2178C48.0449 16.2157 51.2519 14.7877 51.2519 11.9337Z" fill="#18C4B8"/>
<path id="Vector_2" d="M57.796 27.1765V34.6317H32.5518V40.5372H24.9482V27.1765H57.796Z" fill="#18C4B8"/>
<path id="Vector_3" d="M62.2744 4.547H69.2376C74.0598 4.547 77.7256 5.92081 80.2353 8.66844C82.7449 11.4161 83.9997 15.4308 83.9997 20.7126C83.9997 24.7157 83.3805 27.9472 82.142 30.407C80.9036 32.8669 79.1731 34.6468 76.9506 35.7468C74.7281 36.8454 72.273 37.3948 69.5854 37.3948H62.2744V4.547ZM69.7296 11.5347V30.3825C71.9937 30.1861 73.5929 29.3865 74.5272 27.9837C75.4615 26.5809 75.929 24.2721 75.9297 21.0573C75.9297 19.1546 75.7657 17.5428 75.4377 16.2219C75.1096 14.9009 74.6217 13.8841 73.9738 13.1714C73.3253 12.4574 72.6938 12.0186 72.0793 11.8549C71.3088 11.6696 70.5216 11.5623 69.7296 11.5347Z" fill="#18C4B8"/>
<path id="Vector_4" d="M0 4.547H7.57797C11.9896 4.547 15.1634 5.41241 17.0995 7.14323C19.0356 8.87405 20.0047 11.0761 20.0067 13.7494C20.0067 16.6375 18.5961 18.9586 15.7748 20.7126C18.9725 21.9756 20.5717 24.3788 20.5724 27.9223C20.5724 30.7599 19.5798 33.0479 17.5946 34.7862C15.6094 36.5246 12.9934 37.3941 9.74661 37.3948H0V4.547ZM7.45522 10.8463V17.9322C10.7846 17.8504 12.4492 16.6941 12.4492 14.4634C12.4492 13.1343 12.0516 12.2075 11.2565 11.6831C10.4613 11.1586 9.19422 10.8797 7.45522 10.8463ZM7.45522 23.8868V30.9973C9.34016 30.9645 10.7549 30.6733 11.6994 30.1237C12.6439 29.574 13.1155 28.668 13.1141 27.4057C13.1141 25.0604 11.4328 23.8875 8.07001 23.8868H7.45522Z" fill="#18C4B8"/>
</g>
</svg>
