<svg width="33" height="32" viewBox="0 0 33 32" fill="none" xmlns="http://www.w3.org/2000/svg">
<g id="fluent:luggage-28-filled">
<path id="Vector" d="M10.7853 2.5715C10.7853 2.34417 10.8756 2.12615 11.0363 1.96541C11.1971 1.80466 11.4151 1.71436 11.6424 1.71436H21.3567C21.5841 1.71436 21.8021 1.80466 21.9628 1.96541C22.1236 2.12615 22.2139 2.34417 22.2139 2.5715C22.2139 2.79883 22.1236 3.01684 21.9628 3.17759C21.8021 3.33834 21.5841 3.42864 21.3567 3.42864H21.071V4.5715H22.7853C23.8462 4.5715 24.8636 4.99293 25.6137 5.74307C26.3639 6.49322 26.7853 7.51063 26.7853 8.5715V24.0001C26.7855 24.9621 26.4391 25.892 25.8093 26.6193C25.1796 27.3466 24.3089 27.8226 23.3567 27.9601V28.8572C23.3567 29.0845 23.2664 29.3026 23.1057 29.4633C22.9449 29.6241 22.7269 29.7144 22.4996 29.7144C22.2723 29.7144 22.0542 29.6241 21.8935 29.4633C21.7327 29.3026 21.6424 29.0845 21.6424 28.8572V28.0001H11.3567V28.8572C11.3567 29.0845 11.2664 29.3026 11.1057 29.4633C10.9449 29.6241 10.7269 29.7144 10.4996 29.7144C10.2723 29.7144 10.0542 29.6241 9.89349 29.4633C9.73274 29.3026 9.64244 29.0845 9.64244 28.8572V27.9601C8.69027 27.8226 7.81952 27.3466 7.18982 26.6193C6.56011 25.892 6.21362 24.9621 6.21387 24.0001V8.5715C6.21387 7.51063 6.63529 6.49322 7.38544 5.74307C8.13559 4.99293 9.153 4.5715 10.2139 4.5715H11.9282V3.42864H11.6424C11.4151 3.42864 11.1971 3.33834 11.0363 3.17759C10.8756 3.01684 10.7853 2.79883 10.7853 2.5715ZM13.6424 3.42864V4.5715H19.3567V3.42864H13.6424ZM11.6424 10.2858C11.4151 10.2858 11.1971 10.3761 11.0363 10.5368C10.8756 10.6976 10.7853 10.9156 10.7853 11.1429C10.7853 11.3703 10.8756 11.5883 11.0363 11.749C11.1971 11.9098 11.4151 12.0001 11.6424 12.0001H21.3567C21.5841 12.0001 21.8021 11.9098 21.9628 11.749C22.1236 11.5883 22.2139 11.3703 22.2139 11.1429C22.2139 10.9156 22.1236 10.6976 21.9628 10.5368C21.8021 10.3761 21.5841 10.2858 21.3567 10.2858H11.6424Z" fill="black"/>
</g>
</svg>
