<svg width="32" height="32" viewBox="0 0 32 32" fill="none" xmlns="http://www.w3.org/2000/svg">
<g id="icon-park-solid:manual-gear">
<g id="Group">
<path id="Vector" d="M26.6673 8V16H5.33398M16.0007 8V24M5.33398 8V24" stroke="black" stroke-width="3" stroke-linecap="round" stroke-linejoin="round"/>
<path id="Vector_2" d="M29.3337 5.33317C29.3337 6.04041 29.0527 6.71869 28.5526 7.21879C28.0525 7.71889 27.3742 7.99984 26.667 7.99984C25.9597 7.99984 25.2815 7.71889 24.7814 7.21879C24.2813 6.71869 24.0003 6.04041 24.0003 5.33317C24.0003 4.62593 24.2813 3.94765 24.7814 3.44755C25.2815 2.94746 25.9597 2.6665 26.667 2.6665C27.3742 2.6665 28.0525 2.94746 28.5526 3.44755C29.0527 3.94765 29.3337 4.62593 29.3337 5.33317ZM18.667 5.33317C18.667 6.04041 18.386 6.71869 17.8859 7.21879C17.3858 7.71889 16.7076 7.99984 16.0003 7.99984C15.2931 7.99984 14.6148 7.71889 14.1147 7.21879C13.6146 6.71869 13.3337 6.04041 13.3337 5.33317C13.3337 4.62593 13.6146 3.94765 14.1147 3.44755C14.6148 2.94746 15.2931 2.6665 16.0003 2.6665C16.7076 2.6665 17.3858 2.94746 17.8859 3.44755C18.386 3.94765 18.667 4.62593 18.667 5.33317ZM8.00033 5.33317C8.00033 6.04041 7.71937 6.71869 7.21928 7.21879C6.71918 7.71889 6.0409 7.99984 5.33366 7.99984C4.62641 7.99984 3.94814 7.71889 3.44804 7.21879C2.94794 6.71869 2.66699 6.04041 2.66699 5.33317C2.66699 4.62593 2.94794 3.94765 3.44804 3.44755C3.94814 2.94746 4.62641 2.6665 5.33366 2.6665C6.0409 2.6665 6.71918 2.94746 7.21928 3.44755C7.71937 3.94765 8.00033 4.62593 8.00033 5.33317ZM18.667 26.6665C18.667 27.3737 18.386 28.052 17.8859 28.5521C17.3858 29.0522 16.7076 29.3332 16.0003 29.3332C15.2931 29.3332 14.6148 29.0522 14.1147 28.5521C13.6146 28.052 13.3337 27.3737 13.3337 26.6665C13.3337 25.9593 13.6146 25.281 14.1147 24.7809C14.6148 24.2808 15.2931 23.9998 16.0003 23.9998C16.7076 23.9998 17.3858 24.2808 17.8859 24.7809C18.386 25.281 18.667 25.9593 18.667 26.6665ZM8.00033 26.6665C8.00033 27.3737 7.71937 28.052 7.21928 28.5521C6.71918 29.0522 6.0409 29.3332 5.33366 29.3332C4.62641 29.3332 3.94814 29.0522 3.44804 28.5521C2.94794 28.052 2.66699 27.3737 2.66699 26.6665C2.66699 25.9593 2.94794 25.281 3.44804 24.7809C3.94814 24.2808 4.62641 23.9998 5.33366 23.9998C6.0409 23.9998 6.71918 24.2808 7.21928 24.7809C7.71937 25.281 8.00033 25.9593 8.00033 26.6665ZM26.667 29.3332C27.3742 29.3332 28.0525 29.0522 28.5526 28.5521C29.0527 28.052 29.3337 27.3737 29.3337 26.6665C29.3337 25.9593 29.0527 25.281 28.5526 24.7809C28.0525 24.2808 27.3742 23.9998 26.667 23.9998C25.9597 23.9998 25.2815 24.2808 24.7814 24.7809C24.2813 25.281 24.0003 25.9593 24.0003 26.6665C24.0003 27.3737 24.2813 28.052 24.7814 28.5521C25.2815 29.0522 25.9597 29.3332 26.667 29.3332Z" fill="black" stroke="black" stroke-width="3" stroke-linecap="round" stroke-linejoin="round"/>
</g>
</g>
</svg>
