<svg width="16" height="16" viewBox="0 0 16 16" fill="none" xmlns="http://www.w3.org/2000/svg">
<g id="arcticons:openai-chatgpt" clip-path="url(#clip0_3056_8570)">
<path id="Vector" d="M6.12695 9.31339V4.51339L9.85695 2.36006C11.9236 1.16672 15.6236 4.11006 14.0703 6.80339" stroke="black" stroke-width="1.4" stroke-linejoin="round"/>
<path id="Vector_2" d="M6.12695 6.98008L10.2836 4.58008L14.0136 6.73341C16.0803 7.92674 15.3803 12.6034 12.2703 12.6034" stroke="black" stroke-width="1.4" stroke-linejoin="round"/>
<path id="Vector_3" d="M8.14628 5.81348L12.3029 8.21348V12.5235C12.3029 14.9101 7.90294 16.6435 6.34961 13.9501" stroke="black" stroke-width="1.4" stroke-linejoin="round"/>
<path id="Vector_4" d="M10.1667 7.06641V11.7797L6.43665 13.9331C4.36999 15.1264 0.669985 12.1831 2.22332 9.48974" stroke="black" stroke-width="1.4" stroke-linejoin="round"/>
<path id="Vector_5" d="M10.1669 9.31376L6.01026 11.7138L2.28026 9.56043C0.210256 8.36376 0.910256 3.69043 4.02026 3.69043" stroke="black" stroke-width="1.4" stroke-linejoin="round"/>
<path id="Vector_6" d="M8.1469 10.4799L3.99023 8.07993V3.76993C3.99023 1.38326 8.39023 -0.350075 9.94357 2.34326" stroke="black" stroke-width="1.4" stroke-linejoin="round"/>
</g>
<defs>
<clipPath id="clip0_3056_8570">
<rect width="16" height="16" fill="white"/>
</clipPath>
</defs>
</svg>
