<svg width="24" height="24" viewBox="0 0 24 24" fill="none" xmlns="http://www.w3.org/2000/svg">
<g id="flowbite:map-pin-solid">
<path id="Vector" fill-rule="evenodd" clip-rule="evenodd" d="M5 9.00004C5.00034 7.65835 5.38627 6.34502 6.11182 5.21643C6.83737 4.08784 7.87197 3.19154 9.09245 2.63425C10.3129 2.07696 11.6678 1.88216 12.9959 2.07304C14.3239 2.26392 15.5691 2.83245 16.5833 3.71092C17.5974 4.58939 18.3377 5.7408 18.716 7.02805C19.0943 8.3153 19.0947 9.68416 18.7171 10.9716C18.3396 12.2591 17.6 13.411 16.5864 14.29C15.5728 15.1691 14.3279 15.7384 13 15.93V21C13 21.2653 12.8946 21.5196 12.7071 21.7071C12.5196 21.8947 12.2652 22 12 22C11.7348 22 11.4804 21.8947 11.2929 21.7071C11.1054 21.5196 11 21.2653 11 21V15.93C9.3337 15.6895 7.8099 14.8565 6.70791 13.5837C5.60592 12.3109 4.99957 10.6836 5 9.00004ZM10.94 7.94004C11.221 7.65865 11.6023 7.50039 12 7.50004C12.2652 7.50004 12.5196 7.39468 12.7071 7.20715C12.8946 7.01961 13 6.76525 13 6.50004C13 6.23482 12.8946 5.98047 12.7071 5.79293C12.5196 5.6054 12.2652 5.50004 12 5.50004C11.0717 5.50004 10.1815 5.86879 9.52513 6.52517C8.86875 7.18154 8.5 8.07178 8.5 9.00004C8.5 9.26525 8.60536 9.51961 8.79289 9.70715C8.98043 9.89468 9.23478 10 9.5 10C9.76522 10 10.0196 9.89468 10.2071 9.70715C10.3946 9.51961 10.5 9.26525 10.5 9.00004C10.5 8.60204 10.658 8.22004 10.94 7.94004Z" fill="black"/>
</g>
</svg>
