<svg width="24" height="50" viewBox="0 0 24 50" fill="none" xmlns="http://www.w3.org/2000/svg">
<path fill-rule="evenodd" clip-rule="evenodd" d="M11.7743 1.89246C6.54821 1.89246 2.3119 6.12876 2.3119 11.3548C2.3119 16.5809 6.54821 20.8172 11.7743 20.8172C17.0003 20.8172 21.2367 16.5809 21.2367 11.3548C21.2367 6.12876 17.0003 1.89246 11.7743 1.89246ZM11.7743 7.56988C10.7704 7.56988 9.80773 7.96865 9.09791 8.67847C8.3881 9.38828 7.98933 10.351 7.98933 11.3548C7.98933 12.3587 8.3881 13.3214 9.09791 14.0312C9.80773 14.741 10.7704 15.1398 11.7743 15.1398C12.7781 15.1398 13.7408 14.741 14.4506 14.0312C15.1605 13.3214 15.5592 12.3587 15.5592 11.3548C15.5592 10.351 15.1605 9.38828 14.4506 8.67847C13.7408 7.96865 12.7781 7.56988 11.7743 7.56988Z" fill="black"/>
<path d="M10.2741 48.2574C10.2741 49.0859 10.9456 49.7574 11.7741 49.7574C12.6025 49.7574 13.2741 49.0859 13.2741 48.2574L10.2741 48.2574ZM13.2741 48.2574L13.2741 19.8703L10.2741 19.8703L10.2741 48.2574L13.2741 48.2574Z" fill="black"/>
</svg>
