<svg width="15" height="15" viewBox="0 0 15 15" fill="none" xmlns="http://www.w3.org/2000/svg">
<g id="mdi:local-offer" clip-path="url(#clip0_3121_8541)">
<path id="Vector" d="M8.90345 3.47432C8.85817 3.28063 8.89169 3.07688 8.99663 2.9079C9.10157 2.73893 9.26934 2.61856 9.46303 2.57328C9.65672 2.528 9.86047 2.56152 10.0294 2.66646C10.1984 2.7714 10.3188 2.93917 10.3641 3.13286C10.4093 3.32655 10.3758 3.5303 10.2709 3.69928C10.1659 3.86825 9.99817 3.98862 9.80448 4.0339C9.61079 4.07918 9.40705 4.04566 9.23807 3.94072C9.0691 3.83578 8.94873 3.66801 8.90345 3.47432ZM8.48441 11.7418L11.8419 6.33554C11.9762 6.11929 12.0264 5.85081 11.9638 5.58303L11.1671 2.17492C11.0408 1.63449 10.5061 1.30247 9.96571 1.42881L6.55759 2.22553C6.28981 2.28813 6.07142 2.45215 5.93825 2.67327L2.57961 8.07462C2.44645 8.29573 2.39138 8.56535 2.45398 8.83313C2.51658 9.10091 2.68547 9.31817 2.90172 9.45247L7.10655 12.0639C7.32394 12.203 7.59242 12.2532 7.8602 12.1906C8.13285 12.1269 8.35011 11.958 8.48441 11.7418Z" fill="black"/>
</g>
<defs>
<clipPath id="clip0_3121_8541">
<rect width="12" height="12" fill="white" transform="translate(11.6855) rotate(76.8421)"/>
</clipPath>
</defs>
</svg>
