<svg width="28" height="28" viewBox="0 0 28 28" fill="none" xmlns="http://www.w3.org/2000/svg">
<g id="fluent:share-28-filled">
<path id="Vector" d="M18.27 3.20953L25.77 10.4595C25.8426 10.5295 25.9003 10.6134 25.9398 10.7061C25.9792 10.7989 25.9995 10.8987 25.9995 10.9995C25.9995 11.1003 25.9792 11.2001 25.9398 11.2929C25.9003 11.3857 25.8426 11.4696 25.77 11.5395L18.27 18.7895C18.2014 18.8571 18.1202 18.9104 18.031 18.9465C17.9417 18.9825 17.8462 19.0005 17.75 18.9995C17.5511 18.9995 17.3603 18.9205 17.2197 18.7799C17.079 18.6392 17 18.4484 17 18.2495V14.5095C10.3 14.7795 7.48 18.5295 7.36 18.6895C7.26453 18.8152 7.13275 18.9085 6.98251 18.9568C6.83226 19.0051 6.67081 19.006 6.52 18.9595C6.36957 18.9111 6.2383 18.8163 6.14492 18.6888C6.05153 18.5613 6.00081 18.4076 6 18.2495C6 10.2295 12.59 7.76953 17 7.51953V3.74953C17.0003 3.60202 17.0441 3.45789 17.126 3.33517C17.2078 3.21244 17.324 3.11656 17.46 3.05953C17.5947 3.00144 17.7436 2.98469 17.8878 3.0114C18.032 3.0381 18.1651 3.10706 18.27 3.20953ZM7.75 3.99953C6.49022 3.99953 5.28204 4.49997 4.39124 5.39077C3.50045 6.28157 3 7.48975 3 8.74953V20.2495C3 21.5093 3.50045 22.7175 4.39124 23.6083C5.28204 24.4991 6.49022 24.9995 7.75 24.9995H19.25C20.5098 24.9995 21.718 24.4991 22.6088 23.6083C23.4996 22.7175 24 21.5093 24 20.2495V19.7495C24 19.5506 23.921 19.3598 23.7803 19.2192C23.6397 19.0785 23.4489 18.9995 23.25 18.9995C23.0511 18.9995 22.8603 19.0785 22.7197 19.2192C22.579 19.3598 22.5 19.5506 22.5 19.7495V20.2495C22.5 21.1115 22.1576 21.9381 21.5481 22.5476C20.9386 23.1571 20.112 23.4995 19.25 23.4995H7.75C6.88805 23.4995 6.0614 23.1571 5.4519 22.5476C4.84241 21.9381 4.5 21.1115 4.5 20.2495V8.74953C4.5 7.88757 4.84241 7.06092 5.4519 6.45143C6.0614 5.84193 6.88805 5.49953 7.75 5.49953H12.25C12.4489 5.49953 12.6397 5.42051 12.7803 5.27986C12.921 5.1392 13 4.94844 13 4.74953C13 4.55061 12.921 4.35985 12.7803 4.2192C12.6397 4.07854 12.4489 3.99953 12.25 3.99953H7.75Z" fill="#29ABE2"/>
</g>
</svg>
