<svg width="32" height="32" viewBox="0 0 32 32" fill="none" xmlns="http://www.w3.org/2000/svg">
<g id="mdi:car-seat">
<path id="Vector" d="M9.33301 23.9998C9.33301 23.9998 5.33301 13.3332 5.33301 7.99984C5.33301 2.6665 7.99967 2.6665 7.99967 2.6665H9.33301C9.33301 2.6665 10.6663 2.6665 10.6663 3.99984C10.6663 5.33317 9.33301 5.33317 9.33301 7.99984C9.33301 10.6665 13.333 13.3332 13.333 17.3332C13.333 21.3332 9.33301 23.9998 9.33301 23.9998ZM15.9997 22.6665C14.6663 22.6665 10.6663 25.9998 10.6663 25.9998C10.2663 26.2665 10.3997 26.6665 10.6663 27.0665C10.6663 27.0665 11.9997 29.4665 14.6663 29.4665H22.6663C24.133 29.4665 25.333 28.2665 25.333 26.7998V25.4665C25.333 23.9998 24.133 22.7998 22.6663 22.7998H15.9997V22.6665Z" fill="black"/>
</g>
</svg>
