<svg width="15" height="12" viewBox="0 0 15 12" fill="none" xmlns="http://www.w3.org/2000/svg">
<g id="Group 3190">
<path id="Vector" d="M12.1487 4.17295C11.3759 4.1293 10.7821 4.61731 10.5376 5.33523C10.3996 5.74012 11.099 6.24722 10.6352 6.36023C10.3615 6.42686 10.1083 6.61541 9.94102 6.83794C9.73457 7.11247 9.63528 7.31853 9.82586 7.6375C9.85335 7.68285 10.3073 8.14795 10.2832 8.1641C10.1129 8.27989 9.95191 8.4087 9.80157 8.54938C9.03247 9.27651 8.97587 10.1679 9.79164 10.8327C9.9839 10.9877 10.6211 10.318 10.4732 10.1978C10.113 9.90431 9.38787 9.15721 10.1181 8.67724C10.2894 8.56522 10.4484 8.44551 10.573 8.28037C10.9114 7.83316 10.9358 7.37184 10.5072 7.00236C10.316 6.8384 10.5386 6.94812 10.7281 6.8291C10.9044 6.71834 11.081 6.56052 11.2043 6.3922C11.3196 6.23489 11.4972 5.91273 11.4641 5.69892C11.4237 5.44463 10.9972 4.81292 11.5461 4.84365C11.8096 4.85903 12.3034 4.18193 12.1487 4.17295ZM10.109 2.20228C8.95027 1.4013 8.49363 2.26686 8.10013 3.29431C8.18598 3.06964 6.93187 3.0865 6.73747 3.17409C6.23783 3.40061 5.91343 4.32172 5.41591 3.91913C4.99207 3.57523 4.54287 3.70135 4.11162 3.98837C3.92542 4.1141 3.77393 4.28476 3.67118 4.48457C3.54276 4.73428 3.67159 5.37608 3.32616 5.02414C2.25547 3.93307 1.08021 6.11784 0.877808 6.78785C0.842176 6.90625 1.59234 6.61498 1.67029 6.35739C1.82311 5.8506 2.09739 5.0776 2.70411 5.69623C2.8656 5.86018 2.9019 5.84178 3.12445 5.84008C3.4188 5.83835 3.78763 5.52375 3.97909 5.3356C4.23456 5.0843 4.32971 4.22314 4.6405 4.43438C5.05308 4.71551 5.38512 4.86926 5.87454 4.60366C6.17265 4.44214 6.39228 4.24199 6.5266 3.9343C6.79312 3.3283 7.2968 4.06043 7.73906 3.93788C8.10812 3.83533 8.37323 3.59757 8.62562 3.32591C8.77883 3.161 8.86038 2.95918 8.93955 2.75143C9.08457 2.37441 8.45157 2.10858 9.33316 2.71742C9.5657 2.8785 10.2147 2.27484 10.1086 2.20217" fill="#EACB49"/>
<path id="Vector_2" d="M7.43337 5.42386C7.26706 5.04308 6.88811 5.11003 6.56612 5.27231C6.0879 5.35437 5.52359 5.757 5.67148 6.26269C5.83305 6.81775 6.4727 6.80584 6.88651 6.57268C7.31233 6.33312 7.65098 5.91956 7.43366 5.42272" fill="#EACB49"/>
<path id="Vector_3" d="M5.88842 9.03144C5.94084 8.80995 5.77953 8.58392 5.78989 8.3586C5.8104 7.91903 6.02982 7.63237 6.44815 7.49864C6.35561 7.24909 6.25081 7.01458 6.04055 6.88305C5.11907 7.22784 4.87683 8.20082 5.26039 9.02983C5.40557 9.34292 5.78147 9.47799 5.88842 9.03144Z" fill="#D13852"/>
<path id="Vector_4" d="M5.63785 0.925263C6.39759 0.776354 7.05246 1.17798 7.39275 1.85638C7.5847 2.23902 6.96063 2.83663 7.43566 2.88526C7.71586 2.91379 7.99236 3.06636 8.18852 3.26347C8.43052 3.50693 8.55699 3.69759 8.41141 4.03943C8.3908 4.08862 8.00385 4.61135 8.03055 4.62436C8.21529 4.71478 8.39227 4.82024 8.55972 4.93968C9.42186 5.55475 9.59909 6.43039 8.88142 7.20093C8.71214 7.38161 7.98966 6.80416 8.11941 6.66523C8.43644 6.32502 9.05294 5.48597 8.26375 5.11093C8.07899 5.02305 7.90482 4.92575 7.75933 4.77984C7.36277 4.38239 7.27611 3.92815 7.64974 3.5043C7.81693 3.3156 7.61112 3.45517 7.40715 3.36294C7.21739 3.27766 7.02111 3.14531 6.87598 2.99514C6.7406 2.85516 6.52012 2.55984 6.52439 2.34338C6.52929 2.08599 6.86571 1.40212 6.32565 1.508C6.0673 1.55869 5.48591 0.955625 5.63774 0.925718M13.381 8.77352C13.1982 8.42364 12.8287 8.4328 12.5132 8.55972C12.5241 8.52211 12.5168 8.49078 12.4702 8.4771C12.3007 8.42739 12.0535 8.60851 11.9348 8.70572C11.5604 9.01263 11.3099 9.49434 11.6539 9.92592C12.0251 10.3907 12.734 10.0634 13.1005 9.78208C13.4256 9.53261 13.5787 9.15157 13.381 8.77352ZM12.2823 9.09132C12.2807 9.07762 12.2847 9.06461 12.2844 9.05148C12.305 9.05618 12.3479 9.0566 12.3769 9.06728C12.4567 9.09562 12.5149 9.1603 12.5653 9.22594C12.6349 9.31623 12.6779 9.43898 12.6822 9.55922C12.5855 9.53441 12.4977 9.48264 12.4293 9.40993C12.3495 9.3248 12.2988 9.20544 12.2823 9.09132Z" fill="#D13852"/>
</g>
</svg>
