<svg width="16" height="17" viewBox="0 0 16 17" fill="none" xmlns="http://www.w3.org/2000/svg">
<g id="solar:star-bold">
<path id="Vector" d="M6.10183 4.1055C6.9465 2.59083 7.3685 1.8335 7.99983 1.8335C8.63116 1.8335 9.05316 2.59083 9.89783 4.1055L10.1165 4.4975C10.3565 4.92816 10.4765 5.1435 10.6632 5.2855C10.8498 5.4275 11.0832 5.48016 11.5498 5.5855L11.9738 5.6815C13.6138 6.05283 14.4332 6.23816 14.6285 6.8655C14.8232 7.49216 14.2645 8.14616 13.1465 9.4535L12.8572 9.7915C12.5398 10.1628 12.3805 10.3488 12.3092 10.5782C12.2378 10.8082 12.2618 11.0562 12.3098 11.5515L12.3538 12.0028C12.5225 13.7475 12.6072 14.6195 12.0965 15.0068C11.5858 15.3948 10.8178 15.0408 9.28316 14.3342L8.88516 14.1515C8.44916 13.9502 8.23116 13.8502 7.99983 13.8502C7.7685 13.8502 7.5505 13.9502 7.1145 14.1515L6.71716 14.3342C5.18183 15.0408 4.41383 15.3942 3.90383 15.0075C3.3925 14.6195 3.47716 13.7475 3.64583 12.0028L3.68983 11.5522C3.73783 11.0562 3.76183 10.8082 3.68983 10.5788C3.61916 10.3488 3.45983 10.1628 3.1425 9.79216L2.85316 9.4535C1.73516 8.14683 1.1765 7.49283 1.37116 6.8655C1.5665 6.23816 2.3865 6.05216 4.0265 5.6815L4.4505 5.5855C4.9165 5.48016 5.14916 5.4275 5.3365 5.2855C5.52316 5.1435 5.64316 4.92816 5.88316 4.4975L6.10183 4.1055Z" fill="#F4B000"/>
</g>
</svg>
