<svg width="32" height="32" viewBox="0 0 32 32" fill="none" xmlns="http://www.w3.org/2000/svg">
<g id="visa 1">
<g id="Group">
<path id="Vector" d="M14.2094 20.2231H12.0119L13.3853 11.7827H15.5831L14.2094 20.2231ZM10.1633 11.7827L8.06827 17.5881L7.82036 16.338L7.82059 16.3384L7.08116 12.5426C7.08116 12.5426 6.99176 11.7827 6.03875 11.7827H2.57531L2.53467 11.9256C2.53467 11.9256 3.59379 12.1459 4.83332 12.8903L6.7425 20.2234H9.03211L12.5283 11.7827H10.1633ZM27.4477 20.2231H29.4655L27.7062 11.7824H25.9397C25.124 11.7824 24.9253 12.4114 24.9253 12.4114L21.6479 20.2231H23.9387L24.3968 18.9694H27.1903L27.4477 20.2231ZM25.0296 17.2375L26.1843 14.0788L26.8338 17.2375H25.0296ZM21.8197 13.8124L22.1333 11.9999C22.1333 11.9999 21.1657 11.6318 20.1569 11.6318C19.0664 11.6318 16.4767 12.1085 16.4767 14.4261C16.4767 16.6066 19.5161 16.6337 19.5161 17.7791C19.5161 18.9245 16.7899 18.7192 15.8901 17.997L15.5634 19.8922C15.5634 19.8922 16.5447 20.3688 18.0438 20.3688C19.5434 20.3688 21.8057 19.5923 21.8057 17.479C21.8057 15.2845 18.739 15.0801 18.739 14.126C18.7392 13.1716 20.8794 13.2942 21.8197 13.8124Z" fill="#2566AF"/>
</g>
<path id="Vector_2" d="M7.82059 16.338L7.08116 12.5422C7.08116 12.5422 6.99176 11.7822 6.03875 11.7822H2.57531L2.53467 11.9251C2.53467 11.9251 4.19933 12.2701 5.79603 13.5627C7.32275 14.7982 7.82059 16.338 7.82059 16.338Z" fill="#E6A540"/>
</g>
</svg>
